# xmcd
# 
# Track frame offsets:
#     150
#     21528
#     44362
#     64535
#     85965
#     106138
#     129509
#     153245
#     174818
#     197011
#     216978
#     235583
#     255463
#     274643
#     295972
# 
# Disc length: 4188
# 
# Revision: 1
# Processed by: cddbd v1.5.2PL0 Copyright (c) Steve Scherf et al.
# Submitted via: BonkEnc v1.0.5
# 
DISCID=ca105a0f
DTITLE=小田和正 - 自己ベスト
DYEAR=2002
DGENRE=JPop
TTITLE0=キラキラ
TTITLE1=秋の気配
TTITLE2=愛を止めないで
TTITLE3=さよなら
TTITLE4=Yes-No
TTITLE5=言葉にできない
TTITLE6=緑の日々
TTITLE7=Oh! Yeah!
TTITLE8=ラブ・ストーリーは突然に
TTITLE9=my home town
TTITLE10=風の坂道
TTITLE11=伝えたいことがあるんだ
TTITLE12=緑の街
TTITLE13=風のように
TTITLE14=woh woh
EXTD=YEAR: 2002
EXTT0=
EXTT1=
EXTT2=
EXTT3=
EXTT4=
EXTT5=
EXTT6=
EXTT7=
EXTT8=
EXTT9=
EXTT10=
EXTT11=
EXTT12=
EXTT13=
EXTT14=
PLAYORDER=
